<svg xmlns="http://www.w3.org/2000/svg" viewBox="0 0 1179 1156">
  <rect width="1179" height="1156" fill="#fff"/>
  <ellipse cx="626" cy="105" rx="87" ry="65" fill="none" stroke="#000" stroke-width="10"/>
  <rect x="87" y="307" width="1040" height="533" fill="#fff" stroke="#000" stroke-width="8"/>
  <g transform="translate(101 321)">
    <rect width="1012" height="505" fill="#fff" stroke="#8d8d8d" stroke-width="6"/>
    <g stroke="#9a9a9a" stroke-width="6">
      <line x1="202.4" y1="0" x2="202.4" y2="505"/>
      <line x1="404.8" y1="0" x2="404.8" y2="505"/>
      <line x1="607.2" y1="0" x2="607.2" y2="505"/>
      <line x1="809.6" y1="0" x2="809.6" y2="505"/>
      <line x1="0" y1="101" x2="1012" y2="101"/>
      <line x1="0" y1="202" x2="1012" y2="202"/>
      <line x1="0" y1="303" x2="1012" y2="303"/>
      <line x1="0" y1="404" x2="1012" y2="404"/>
    </g>
    <g fill="#fff45d">
      <rect x="11" y="11" width="180" height="79"/>
      <rect x="415.8" y="11" width="180" height="79"/>
      <rect x="820.6" y="11" width="180" height="79"/>
      <rect x="213.4" y="112" width="180" height="79"/>
      <rect x="618.2" y="112" width="180" height="79"/>
      <rect x="11" y="213" width="180" height="79"/>
      <rect x="820.6" y="213" width="180" height="79"/>
      <rect x="213.4" y="314" width="180" height="79"/>
      <rect x="618.2" y="314" width="180" height="79"/>
      <rect x="11" y="415" width="180" height="79"/>
      <rect x="415.8" y="415" width="180" height="79"/>
      <rect x="820.6" y="415" width="180" height="79"/>
    </g>
    <g fill="#1a34ff" font-size="68" font-family="Segoe UI, Arial, sans-serif" font-weight="700" text-anchor="middle" dominant-baseline="middle">
      <text x="101" y="50">7</text>
      <text x="505" y="50">6</text>
      <text x="910" y="50">1</text>
      <text x="101" y="252">5</text>
      <text x="505" y="252">3</text>
      <text x="101" y="454">8</text>
      <text x="505" y="454">4</text>
      <text x="910" y="454">2</text>
    </g>
  </g>
  <g fill="#333" font-family="Segoe UI, Arial, sans-serif" font-size="48">
    <text x="38" y="956">도장 찍히는 각 타일마다 고은의 번호 (1~8번) 자기 번호 뛬거보고</text>
    <text x="38" y="1038">숫자에 적힌 자리 찾아가면 되는데,</text>
  </g>
</svg>
